<svg width="21" height="21" viewBox="0 0 21 21" fill="none" xmlns="http://www.w3.org/2000/svg">
<g clip-path="url(#clip0_14558_8220)">
<path d="M19.25 9.69488V10.4999C19.2489 12.3868 18.6379 14.2227 17.5082 15.734C16.3784 17.2452 14.7904 18.3508 12.9809 18.8858C11.1715 19.4208 9.2376 19.3565 7.46766 18.7026C5.69772 18.0487 4.18657 16.8402 3.15959 15.2573C2.13261 13.6744 1.64482 11.8019 1.76897 9.91916C1.89312 8.03638 2.62256 6.24417 3.8485 4.80982C5.07443 3.37547 6.73119 2.37584 8.57167 1.96001C10.4121 1.54418 12.3377 1.73443 14.0613 2.50238" stroke="#1C1E21" stroke-width="2" stroke-linecap="round" stroke-linejoin="round"/>
<path d="M19.25 3.5L10.5 12.2587L7.875 9.63375" stroke="#1C1E21" stroke-width="2" stroke-linecap="round" stroke-linejoin="round"/>
</g>
<defs>
<clipPath id="clip0_14558_8220">
<rect width="21" height="21" fill="white"/>
</clipPath>
</defs>
</svg>
